<?xml version="1.0" encoding="utf-8" ?>
<svg xmlns="http://www.w3.org/2000/svg" xmlns:cc="http://creativecommons.org/ns" xmlns:dc="http://purl.org/dc/elements/1.1/" xmlns:ev="http://www.w3.org/2001/xml-events" xmlns:inkscape="http://www.inkscape.org/namespaces/inkscape" xmlns:rdf="http://www.w3.org/1999/02/22-rdf-syntax-ns" xmlns:sodipodi="http://sodipodi.sourceforge.net/DTD/sodipodi-0.dtd" xmlns:xlink="http://www.w3.org/1999/xlink" baseProfile="tiny" height="27.94cm" version="1.2" viewBox="0 0 1632.0 1056.0" width="43.18cm">
  <metadata>
    <rdf:RDF>
      <cc:Work>
        <dc:format>image/svg+xml</dc:format>
        <dc:source>vpype text --align left --size 0.5 --position 0 0 --layer 1 M rotate --layer 1 -- -45.00000005142000053055 text --align left --size 0.5 --position .39269908125000000000 .1913 --layer 2 A rotate --layer 2 -- -42.73420965503884138651 text --align left --size 0.5 --position .78539816250000000000 .3535 --layer 3 Y rotate --layer 3 -- -35.26438974728971803285 text --align left --size 0.5 --position 1.17809724375000000000 .4619 --layer 4 1 rotate --layer 4 -- -20.94102055832870125221 text --align left --size 0.5 --position 1.57079632500000000000 .4999 --layer 5 0 rotate --layer 5 -- -.00000010284000106169 text --align left --size 0.5 --position 1.96349540625000000000 .4619 --layer 6 2 rotate --layer 6 -- 20.94102039257868486476 text --align left --size 0.5 --position 2.35619448750000000000 .3535 --layer 7 0 rotate --layer 7 -- 35.26438965033123505034 text --align left --size 0.5 --position 2.74889356875000000000 .1913 --layer 8 2 rotate --layer 8 -- 42.73420961257428121943 text --align left --size 0.5 --position 3.14159265000000000000 0 --layer 9 4 rotate --layer 9 -- 45.00000005142000034606 text --align left --size 0.5 --position 3.53429173125000000000 -.1913 --layer 10 . rotate --layer 10 -- 42.73420969750340112732 text --align left --size 0.5 --position 3.92699081250000000000 -.3535 --layer 11 . rotate --layer 11 -- 35.26438984424820043553 text --align left --size 0.5 --position 4.31968989375000000000 -.4619 --layer 12 . rotate --layer 12 -- 20.94102072407871702660 text --align left --size 0.5 --position 4.71238897500000000000 -.5000 --layer 13 1 rotate --layer 13 -- .00000030852000318507 text --align left --size 0.5 --position 5.10508805625000000000 -.4619 --layer 14 2 rotate --layer 14 -- -20.94102022682866786367 text --align left --size 0.5 --position 5.49778713750000000000 -.3535 --layer 15 T rotate --layer 15 -- -35.26438955337275148800 text --align left --size 0.5 --position 5.89048621875000000000 -.1913 --layer 16 O rotate --layer 16 -- -42.73420957010972062606 text --align left --size 0.5 --position 6.28318530000000000000 0 --layer 17 2 rotate --layer 17 -- -45.00000005141999979201 text --align left --size 0.5 --position 6.67588438125000000000 .1913 --layer 18 P rotate --layer 18 -- -42.73420973996796044242 text --align left --size 0.5 --position 7.06858346250000000000 .3535 --layer 19 M rotate --layer 19 -- -35.26438994120668225723 layout --fit-to-margins 0.25in --align left --landscape 11x17in linemerge write out.svg
</dc:source>
        <dc:date>2024-05-02T17:12:03.219343</dc:date>
      </cc:Work>
    </rdf:RDF>
  </metadata>
  <defs/>
  <g fill="none" id="layer1" inkscape:groupmode="layer" inkscape:label="1" stroke="#0000ff" style="display:inline">
    <polyline points="110.6872,533.8678 61.4864,484.667 61.4864,484.667 91.944,552.611 91.944,552.611 24.0,522.1534 24.0,522.1534 73.2008,571.3542"/>
  </g>
  <g fill="none" id="layer2" inkscape:groupmode="layer" inkscape:label="2" stroke="#008800" style="display:inline">
    <polyline points="183.7554,576.143 117.0687,543.0229 117.0687,543.0229 144.8163,612.118"/>
    <line x1="136.3784" x2="160.7153" y1="588.3368" y2="565.8524"/>
  </g>
  <g fill="none" id="layer3" inkscape:groupmode="layer" inkscape:label="3" stroke="#ff0000" style="display:inline">
    <polyline points="182.2221,589.8696 222.9945,601.6193 244.0372,631.3781"/>
    <line x1="225.5076" x2="222.9945" y1="559.2621" y2="601.6193"/>
  </g>
  <g fill="none" id="layer4" inkscape:groupmode="layer" inkscape:label="4" stroke="#00cccc" style="display:inline">
    <polyline points="290.1344,608.805 295.1392,603.3421 300.8701,590.5059 325.7386,655.4905"/>
  </g>
  <g fill="none" id="layer5" inkscape:groupmode="layer" inkscape:label="5" stroke="#00ff00" style="display:inline">
    <polygon points="390.4985,599.2266 380.5585,602.5399 373.9317,612.48 370.6184,629.0468 370.6184,638.9869 373.9317,655.5536 380.5585,665.4937 390.4985,668.8071 397.1252,668.8071 407.0653,665.4937 413.692,655.5536 417.0054,638.9869 417.0054,629.0468 413.692,612.48 407.0653,602.5399 397.1252,599.2266"/>
  </g>
  <g fill="none" id="layer6" inkscape:groupmode="layer" inkscape:label="6" stroke="#cc00cc" style="display:inline">
    <polyline points="465.0318,601.8337 466.216,598.7392 471.6789,593.7344 475.9577,591.8241 483.3309,591.098 495.7089,595.8349 500.7137,601.2978 502.624,605.5765 503.3501,612.9498 500.9816,619.1388 495.5187,624.1436 485.777,631.0586 442.9898,650.1615 486.3129,666.7406"/>
  </g>
  <g fill="none" id="layer7" inkscape:groupmode="layer" inkscape:label="7" stroke="#cccc00" style="display:inline">
    <polygon points="577.7402,572.6529 567.7112,569.6193 556.5616,573.9094 544.2914,585.5232 538.5525,593.6392 531.693,609.0789 531.3648,621.0209 537.5679,629.4651 542.9786,633.2911 553.0076,636.3246 564.1572,632.0345 576.4273,620.4208 582.1662,612.3048 589.0257,596.8651 589.354,584.9231 583.1509,576.4788"/>
  </g>
  <g fill="none" id="layer8" inkscape:groupmode="layer" inkscape:label="8" stroke="#000000" style="display:inline">
    <polyline points="641.3974,541.7008 643.6458,539.2671 650.5764,536.6481 655.2585,536.4629 662.3744,538.526 672.1091,547.5198 674.7281,554.4504 674.9133,559.1325 672.8501,566.2483 668.3533,571.1157 661.4227,573.7347 649.81,576.5389 602.9887,578.3914 637.0604,609.8695"/>
  </g>
  <g fill="none" id="layer9" inkscape:groupmode="layer" inkscape:label="9" stroke="#0000ff" style="display:inline">
    <polyline points="709.8204,558.4683 759.0212,509.2674 759.0212,509.2674 702.7917,518.639 737.9351,553.7825"/>
  </g>
  <g fill="none" id="layer10" inkscape:groupmode="layer" inkscape:label="10" stroke="#008800" style="display:inline">
    <polygon points="792.5489,506.5476 787.8668,506.7329 788.052,511.415 792.7342,511.2298"/>
  </g>
  <g fill="none" id="layer11" inkscape:groupmode="layer" inkscape:label="11" stroke="#ff0000" style="display:inline">
    <polygon points="875.4872,471.8807 870.8689,472.6731 871.6613,477.2914 876.2796,476.499"/>
  </g>
  <g fill="none" id="layer12" inkscape:groupmode="layer" inkscape:label="12" stroke="#00cccc" style="display:inline">
    <polygon points="958.0322,448.5048 953.7535,450.4151 955.6638,454.6938 959.9425,452.7835"/>
  </g>
  <g fill="none" id="layer13" inkscape:groupmode="layer" inkscape:label="13" stroke="#00ff00" style="display:inline">
    <polyline points="1046.7484,400.4464 1053.3752,397.133 1063.3152,387.1929 1063.3152,456.7734"/>
  </g>
  <g fill="none" id="layer14" inkscape:groupmode="layer" inkscape:label="14" stroke="#cc00cc" style="display:inline">
    <polyline points="1118.1954,420.148 1117.0112,417.0535 1117.7373,409.6802 1119.6475,405.4015 1124.6523,399.9386 1137.0304,395.2017 1144.4036,395.9278 1148.6823,397.8381 1154.1453,402.8429 1156.5137,409.0319 1155.7876,416.4051 1153.1512,428.0571 1134.0483,470.8443 1177.3714,454.2653"/>
  </g>
  <g fill="none" id="layer15" inkscape:groupmode="layer" inkscape:label="15" stroke="#cccc00" style="display:inline">
    <line x1="1199.8365" x2="1240.0088" y1="424.6431" y2="481.4553"/>
    <line x1="1180.8991" x2="1218.7739" y1="438.0339" y2="411.2523"/>
  </g>
  <g fill="none" id="layer16" inkscape:groupmode="layer" inkscape:label="16" stroke="#000000" style="display:inline">
    <polygon points="1284.6605,466.3876 1282.0415,473.3182 1281.671,482.6824 1283.7342,489.7983 1288.0458,499.3478 1299.288,511.5162 1308.467,516.5689 1315.3976,519.1878 1324.7619,519.5583 1331.8777,517.4952 1341.6125,508.5014 1344.2314,501.5708 1344.6019,492.2066 1342.5387,485.0907 1338.2271,475.5412 1326.9849,463.3728 1317.8059,458.3201 1310.8753,455.7012 1301.5111,455.3307 1294.3953,457.3939"/>
  </g>
  <g fill="none" id="layer17" inkscape:groupmode="layer" inkscape:label="17" stroke="#0000ff" style="display:inline">
    <polyline points="1366.1535,529.1821 1363.8107,526.8392 1361.4678,519.8105 1361.4678,515.1247 1363.8107,508.096 1373.1822,498.7244 1380.2109,496.3815 1384.8967,496.3815 1391.9254,498.7244 1396.6112,503.4102 1398.9541,510.4389 1401.297,522.1534 1401.297,569.0113 1434.0976,536.2107"/>
  </g>
  <g fill="none" id="layer18" inkscape:groupmode="layer" inkscape:label="18" stroke="#008800" style="display:inline">
    <polyline points="1463.7723,585.5326 1485.6756,565.2967 1490.7282,556.1177 1490.9135,551.4355 1488.8503,544.3197 1482.105,537.0186 1475.1744,534.3997 1470.4923,534.2144 1460.9428,538.526 1439.0395,558.762 1439.0395,558.762 1486.2567,609.8695"/>
  </g>
  <g fill="none" id="layer19" inkscape:groupmode="layer" inkscape:label="19" stroke="#ff0000" style="display:inline">
    <polyline points="1608.0,616.0744 1567.8277,559.2621 1567.8277,559.2621 1586.3572,631.3781 1586.3572,631.3781 1524.5422,589.8696 1524.5422,589.8696 1564.7145,646.6819"/>
  </g>
</svg>
