<?xml version="1.0" encoding="utf-8" ?>
<svg xmlns="http://www.w3.org/2000/svg" xmlns:cc="http://creativecommons.org/ns" xmlns:dc="http://purl.org/dc/elements/1.1/" xmlns:ev="http://www.w3.org/2001/xml-events" xmlns:inkscape="http://www.inkscape.org/namespaces/inkscape" xmlns:rdf="http://www.w3.org/1999/02/22-rdf-syntax-ns" xmlns:sodipodi="http://sodipodi.sourceforge.net/DTD/sodipodi-0.dtd" xmlns:xlink="http://www.w3.org/1999/xlink" baseProfile="tiny" height="27.94cm" version="1.2" viewBox="0 0 1632.0 1056.0" width="43.18cm">
  <metadata>
    <rdf:RDF>
      <cc:Work>
        <dc:format>image/svg+xml</dc:format>
        <dc:source>vpype text --align left --size 0.6 --position 0 0 --layer 1 M rotate --layer 1 -- 13.33806068713555026136 text --align left --size 0.6 --position .57502365468750000000 .13300801899313928348 --layer 2 A rotate --layer 2 -- 9.57153594078722239829 text --align left --size 0.6 --position 1.12199737500000000000 .22524221683653755700 --layer 3 Y rotate --layer 3 -- 2.36666313954715716361 text --align left --size 0.6 --position 1.68299606250000000000 .24842805252714046496 --layer 4 1 rotate --layer 4 -- -5.39394577619168687684 text --align left --size 0.6 --position 2.24399475000000000000 .19545787101668592920 --layer 5 2 rotate --layer 5 -- -11.37751665819464146549 text --align left --size 0.6 --position 2.80499343750000000000 .08256976624511900150 --layer 6 2 rotate --layer 6 -- -13.83905196000694955808 text --align left --size 0.6 --position 3.36599212500000000000 -.05563023255163495053 --layer 7 0 rotate --layer 7 -- -12.18577855257297009317 text --align left --size 0.6 --position 3.92699081250000000000 -.17677669450339714745 --layer 8 2 rotate --layer 8 -- -6.80606607415460861267 text --align left --size 0.6 --position 4.48798950000000000000 -.24373197776016870421 --layer 9 4 rotate --layer 9 -- .79260875263873918287 text --align left --size 0.6 --position 5.04898818750000000000 -.23597083305346250691 --layer 10 1 rotate --layer 10 -- 8.12566953686089845798 text --align left --size 0.6 --position 5.60998687500000000000 -.15587245171763577647 --layer 11 2 rotate --layer 11 -- 12.84132272531920135642 text --align left --size 0.6 --position 6.17098556250000000000 -.02799112077758745912 --layer 12 P rotate --layer 12 -- 13.67158809770755774877 text --align left --size 0.6 --position 6.73198425000000000000 .10847093304673312509 --layer 13 M rotate --layer 13 -- 10.42446079301997765636 color blue layout --fit-to-margins 0.25in --align left --landscape 11x17in linemerge write out.svg
</dc:source>
        <dc:date>2024-05-06T18:07:57.570065</dc:date>
      </cc:Work>
    </rdf:RDF>
  </metadata>
  <defs/>
  <g fill="none" id="layer1" inkscape:groupmode="layer" inkscape:label="1" stroke="#0000ff" style="display:inline">
    <polyline points="89.0646,578.4023 109.3116,493.005 109.3116,493.005 56.5323,570.6892 56.5323,570.6892 44.247,477.5787 44.247,477.5787 24.0,562.976"/>
  </g>
  <g fill="none" id="layer2" inkscape:groupmode="layer" inkscape:label="2" stroke="#0000ff" style="display:inline">
    <polyline points="207.9596,606.4681 189.5843,514.3658 189.5843,514.3658 142.0221,595.3493"/>
    <line x1="159.2499" x2="200.4608" y1="568.5864" y2="575.5357"/>
  </g>
  <g fill="none" id="layer3" inkscape:groupmode="layer" inkscape:label="3" stroke="#0000ff" style="display:inline">
    <polyline points="272.6114,532.9702 304.2913,576.1079 302.3929,622.0407"/>
    <line x1="339.4227" x2="304.2913" y1="535.7315" y2="576.1079"/>
  </g>
  <g fill="none" id="layer4" inkscape:groupmode="layer" inkscape:label="4" stroke="#0000ff" style="display:inline">
    <polyline points="414.2033,557.3009 422.1319,552.3544 433.4356,538.6936 441.6858,626.0696"/>
  </g>
  <g fill="none" id="layer5" inkscape:groupmode="layer" inkscape:label="5" stroke="#0000ff" style="display:inline">
    <polyline points="529.3538,553.9694 528.5294,549.8723 530.9776,540.8535 534.2503,535.932 541.6201,530.1859 558.0087,526.8881 567.0274,529.3363 571.949,532.609 577.6951,539.9788 579.344,548.1731 576.8958,557.1918 571.1749,571.1322 538.448,620.3482 595.808,608.8058"/>
  </g>
  <g fill="none" id="layer6" inkscape:groupmode="layer" inkscape:label="6" stroke="#0000ff" style="display:inline">
    <polyline points="653.6688,530.0741 652.6692,526.0161 654.7278,516.9006 657.7861,511.8429 664.9023,505.7857 681.1342,501.787 690.2497,503.8457 695.3073,506.9039 701.3646,514.0202 703.3639,522.1361 701.3053,531.2517 696.1884,545.4248 665.6055,596.001 722.4168,582.0057"/>
  </g>
  <g fill="none" id="layer7" inkscape:groupmode="layer" inkscape:label="7" stroke="#0000ff" style="display:inline">
    <polygon points="795.2103,473.5794 783.8372,480.311 778.3135,494.3307 778.6392,515.6384 781.2857,527.8937 789.7817,547.437 800.5984,557.928 813.7359,559.3666 821.9061,557.6023 833.2792,550.8707 838.8029,536.851 838.4772,515.5433 835.8307,503.288 827.3347,483.7446 816.518,473.2537 803.3805,471.8151"/>
  </g>
  <g fill="none" id="layer8" inkscape:groupmode="layer" inkscape:label="8" stroke="#0000ff" style="display:inline">
    <polyline points="905.9787,468.7356 905.4834,464.5858 908.6427,455.7909 912.2972,451.1458 920.1016,446.0054 936.7009,444.0243 945.4958,447.1836 950.1409,450.8381 955.2813,458.6425 956.2718,466.9421 953.1126,475.737 946.2988,489.177 909.7534,535.628 967.8509,528.6941"/>
  </g>
  <g fill="none" id="layer9" inkscape:groupmode="layer" inkscape:label="9" stroke="#0000ff" style="display:inline">
    <polyline points="1070.5749,517.6867 1071.789,429.9304 1071.789,429.9304 1029.1909,487.8565 1091.874,488.7236"/>
  </g>
  <g fill="none" id="layer10" inkscape:groupmode="layer" inkscape:label="10" stroke="#0000ff" style="display:inline">
    <polyline points="1170.9161,447.0246 1179.7815,444.0687 1193.9656,433.4289 1181.5605,520.3125"/>
  </g>
  <g fill="none" id="layer11" inkscape:groupmode="layer" inkscape:label="11" stroke="#0000ff" style="display:inline">
    <polyline points="1289.3924,465.2632 1290.3212,461.1885 1296.2536,453.9678 1301.2572,450.8219 1310.3356,448.6049 1326.6346,452.3203 1333.8552,458.2527 1337.0011,463.2563 1339.2181,472.3347 1337.3604,480.4842 1331.428,487.7048 1320.4919,498.0713 1270.456,529.5303 1327.5024,542.5342"/>
  </g>
  <g fill="none" id="layer12" inkscape:groupmode="layer" inkscape:label="12" stroke="#0000ff" style="display:inline">
    <polyline points="1409.035,516.8673 1445.5827,525.7575 1458.7531,524.66 1463.8017,521.5869 1469.8382,514.453 1472.8016,502.2705 1470.7163,493.1609 1467.6433,488.1123 1456.4485,481.088 1419.9008,472.1979 1419.9008,472.1979 1399.157,557.4759"/>
  </g>
  <g fill="none" id="layer13" inkscape:groupmode="layer" inkscape:label="13" stroke="#0000ff" style="display:inline">
    <polyline points="1592.1199,601.3757 1608.0,515.0596 1608.0,515.0596 1559.2376,595.3261 1559.2376,595.3261 1542.2354,502.9605 1542.2354,502.9605 1526.3553,589.2766"/>
  </g>
</svg>
