<?xml version="1.0" encoding="utf-8" ?>
<svg xmlns="http://www.w3.org/2000/svg" xmlns:cc="http://creativecommons.org/ns" xmlns:dc="http://purl.org/dc/elements/1.1/" xmlns:ev="http://www.w3.org/2001/xml-events" xmlns:inkscape="http://www.inkscape.org/namespaces/inkscape" xmlns:rdf="http://www.w3.org/1999/02/22-rdf-syntax-ns" xmlns:sodipodi="http://sodipodi.sourceforge.net/DTD/sodipodi-0.dtd" xmlns:xlink="http://www.w3.org/1999/xlink" baseProfile="tiny" height="43.18cm" version="1.2" viewBox="0 0 1056.0 1632.0" width="27.94cm">
  <metadata>
    <rdf:RDF>
      <cc:Work>
        <dc:format>image/svg+xml</dc:format>
        <dc:source>vpype text --align left --size 284 --position -380 380 YINGYUNCHENG, text --align left --size 284 --position -380 580 SCOTTJENNINGS pagesize 11inx17in scaleto --fit-dimensions 7in 9in linemerge write out.svg
</dc:source>
        <dc:date>2024-02-11T13:40:27.595604</dc:date>
      </cc:Work>
    </rdf:RDF>
  </metadata>
  <defs/>
  <g fill="none" id="layer1" inkscape:groupmode="layer" inkscape:label="1" stroke="#0000ff" style="display:inline">
    <polyline points="362.3125,34.6875 384.6196,233.1475 384.6196,451.4536"/>
    <line x1="406.9266" x2="384.6196" y1="34.6875" y2="233.1475"/>
    <line x1="420.8685" x2="420.8685" y1="34.6875" y2="451.4536"/>
    <polyline points="482.2129,34.6875 482.2129,451.4536 482.2129,451.4536 443.1756,34.6875 443.1756,34.6875 443.1756,451.4536"/>
    <polyline points="543.5573,133.9175 540.7689,94.2255 535.1922,54.5335 529.6154,34.6875 518.4619,34.6875 512.8851,54.5335 507.3084,94.2255 504.52,133.9175 501.7316,193.4555 501.7316,292.6856 504.52,352.2236 507.3084,391.9156 512.8851,431.6076 518.4619,451.4536 529.6154,451.4536 535.1922,431.6076 540.7689,391.9156 543.5573,352.2236 543.5573,292.6856 543.5573,292.6856 529.6154,292.6856"/>
    <polyline points="554.7108,34.6875 577.0179,233.1475 577.0179,451.4536"/>
    <line x1="599.3249" x2="577.0179" y1="34.6875" y2="233.1475"/>
    <polyline points="613.2669,34.6875 613.2669,332.3776 616.0552,391.9156 621.632,431.6076 629.9971,451.4536 635.5739,451.4536 643.9391,431.6076 649.5158,391.9156 652.3042,332.3776 652.3042,34.6875"/>
    <polyline points="713.6486,34.6875 713.6486,451.4536 713.6486,451.4536 674.6113,34.6875 674.6113,34.6875 674.6113,451.4536"/>
    <polyline points="774.993,133.9175 772.2046,94.2255 766.6279,54.5335 761.0511,34.6875 749.8976,34.6875 744.3208,54.5335 738.744,94.2255 735.9557,133.9175 733.1673,193.4555 733.1673,292.6856 735.9557,352.2236 738.744,391.9156 744.3208,431.6076 749.8976,451.4536 761.0511,451.4536 766.6279,431.6076 772.2046,391.9156 774.993,352.2236"/>
    <line x1="794.5117" x2="794.5117" y1="34.6875" y2="451.4536"/>
    <line x1="833.549" x2="833.549" y1="34.6875" y2="451.4536"/>
    <line x1="794.5117" x2="833.549" y1="233.1475" y2="233.1475"/>
    <polyline points="892.105,34.6875 855.8561,34.6875 855.8561,34.6875 855.8561,451.4536 855.8561,451.4536 892.105,451.4536"/>
    <line x1="855.8561" x2="878.1631" y1="233.1475" y2="233.1475"/>
    <polyline points="947.8727,34.6875 947.8727,451.4536 947.8727,451.4536 908.8353,34.6875 908.8353,34.6875 908.8353,451.4536"/>
    <polyline points="1009.2171,133.9175 1006.4287,94.2255 1000.8519,54.5335 995.2752,34.6875 984.1216,34.6875 978.5449,54.5335 972.9681,94.2255 970.1797,133.9175 967.3913,193.4555 967.3913,292.6856 970.1797,352.2236 972.9681,391.9156 978.5449,431.6076 984.1216,451.4536 995.2752,451.4536 1000.8519,431.6076 1006.4287,391.9156 1009.2171,352.2236 1009.2171,292.6856 1009.2171,292.6856 995.2752,292.6856"/>
    <polyline points="1031.5241,372.0696 1028.7357,391.9156 1025.9474,372.0696 1028.7357,352.2236 1031.5241,372.0696 1031.5241,411.7616 1025.9474,451.4536"/>
    <polyline points="406.9266,541.4594 401.3498,501.7674 392.9847,481.9214 381.8312,481.9214 373.466,501.7674 367.8893,541.4594 367.8893,581.1514 370.6776,620.8434 373.466,640.6894 379.0428,660.5354 395.7731,700.2275 401.3498,720.0735 404.1382,739.9195 406.9266,779.6115 406.9266,839.1495 401.3498,878.8415 392.9847,898.6875 381.8312,898.6875 373.466,878.8415 367.8893,839.1495"/>
    <polyline points="465.4826,581.1514 462.6942,541.4594 457.1175,501.7674 451.5407,481.9214 440.3872,481.9214 434.8104,501.7674 429.2337,541.4594 426.4453,581.1514 423.6569,640.6894 423.6569,739.9195 426.4453,799.4575 429.2337,839.1495 434.8104,878.8415 440.3872,898.6875 451.5407,898.6875 457.1175,878.8415 462.6942,839.1495 465.4826,799.4575"/>
    <polygon points="498.9432,481.9214 493.3664,501.7674 487.7897,541.4594 485.0013,581.1514 482.2129,640.6894 482.2129,739.9195 485.0013,799.4575 487.7897,839.1495 493.3664,878.8415 498.9432,898.6875 510.0967,898.6875 515.6735,878.8415 521.2503,839.1495 524.0386,799.4575 526.827,739.9195 526.827,640.6894 524.0386,581.1514 521.2503,541.4594 515.6735,501.7674 510.0967,481.9214"/>
    <line x1="557.4992" x2="557.4992" y1="481.9214" y2="898.6875"/>
    <line x1="537.9805" x2="577.0179" y1="481.9214" y2="481.9214"/>
    <line x1="602.1133" x2="602.1133" y1="481.9214" y2="898.6875"/>
    <line x1="582.5947" x2="621.632" y1="481.9214" y2="481.9214"/>
    <polyline points="657.881,481.9214 657.881,799.4575 655.0926,858.9955 652.3042,878.8415 646.7274,898.6875 641.1507,898.6875 635.5739,878.8415 632.7855,858.9955 629.9971,799.4575 629.9971,759.7655"/>
    <polyline points="716.437,481.9214 680.188,481.9214 680.188,481.9214 680.188,898.6875 680.188,898.6875 716.437,898.6875"/>
    <line x1="680.188" x2="702.4951" y1="680.3815" y2="680.3815"/>
    <polyline points="772.2046,481.9214 772.2046,898.6875 772.2046,898.6875 733.1673,481.9214 733.1673,481.9214 733.1673,898.6875"/>
    <polyline points="833.549,481.9214 833.549,898.6875 833.549,898.6875 794.5117,481.9214 794.5117,481.9214 794.5117,898.6875"/>
    <line x1="855.8561" x2="855.8561" y1="481.9214" y2="898.6875"/>
    <polyline points="917.2005,481.9214 917.2005,898.6875 917.2005,898.6875 878.1631,481.9214 878.1631,481.9214 878.1631,898.6875"/>
    <polyline points="978.5449,581.1514 975.7565,541.4594 970.1797,501.7674 964.603,481.9214 953.4494,481.9214 947.8727,501.7674 942.2959,541.4594 939.5075,581.1514 936.7191,640.6894 936.7191,739.9195 939.5075,799.4575 942.2959,839.1495 947.8727,878.8415 953.4494,898.6875 964.603,898.6875 970.1797,878.8415 975.7565,839.1495 978.5449,799.4575 978.5449,739.9195 978.5449,739.9195 964.603,739.9195"/>
    <polyline points="1034.3125,541.4594 1028.7357,501.7674 1020.3706,481.9214 1009.2171,481.9214 1000.8519,501.7674 995.2752,541.4594 995.2752,581.1514 998.0635,620.8434 1000.8519,640.6894 1006.4287,660.5354 1023.159,700.2275 1028.7357,720.0735 1031.5241,739.9195 1034.3125,779.6115 1034.3125,839.1495 1028.7357,878.8415 1020.3706,898.6875 1009.2171,898.6875 1000.8519,878.8415 995.2752,839.1495"/>
  </g>
</svg>
