<?xml version="1.0" encoding="utf-8" ?>
<svg xmlns="http://www.w3.org/2000/svg" xmlns:cc="http://creativecommons.org/ns" xmlns:dc="http://purl.org/dc/elements/1.1/" xmlns:ev="http://www.w3.org/2001/xml-events" xmlns:inkscape="http://www.inkscape.org/namespaces/inkscape" xmlns:rdf="http://www.w3.org/1999/02/22-rdf-syntax-ns" xmlns:sodipodi="http://sodipodi.sourceforge.net/DTD/sodipodi-0.dtd" xmlns:xlink="http://www.w3.org/1999/xlink" baseProfile="tiny" height="27.94cm" version="1.2" viewBox="0 0 1632.0 1056.0" width="43.18cm">
  <metadata>
    <rdf:RDF>
      <cc:Work>
        <dc:format>image/svg+xml</dc:format>
        <dc:source>vpype text --align center --size 284 --position 657.46906991261963206125 0 O rotate --origin 0 0 -- -21.17647058823529411764 text --align center --size 284 --position 657.46906991261963206125 0 C rotate --origin 0 0 -- -21.17647058823529411764 text --align center --size 284 --position 657.46906991261963206125 0 T rotate --origin 0 0 -- -21.17647058823529411764 text --align center --size 284 --position 657.46906991261963206125 0 O rotate --origin 0 0 -- -21.17647058823529411764 text --align center --size 284 --position 657.46906991261963206125 0 B rotate --origin 0 0 -- -21.17647058823529411764 text --align center --size 284 --position 657.46906991261963206125 0 E rotate --origin 0 0 -- -21.17647058823529411764 text --align center --size 284 --position 657.46906991261963206125 0 R rotate --origin 0 0 -- -21.17647058823529411764 text --align center --size 284 --position 657.46906991261963206125 0 1 rotate --origin 0 0 -- -21.17647058823529411764 text --align center --size 284 --position 657.46906991261963206125 0 3 rotate --origin 0 0 -- -21.17647058823529411764 text --align center --size 284 --position 657.46906991261963206125 0 1 rotate --origin 0 0 -- -21.17647058823529411764 text --align center --size 284 --position 657.46906991261963206125 0 4 rotate --origin 0 0 -- -21.17647058823529411764 text --align center --size 284 --position 657.46906991261963206125 0 1 rotate --origin 0 0 -- -21.17647058823529411764 text --align center --size 284 --position 657.46906991261963206125 0 5 rotate --origin 0 0 -- -21.17647058823529411764 text --align center --size 284 --position 657.46906991261963206125 0 2 rotate --origin 0 0 -- -21.17647058823529411764 text --align center --size 284 --position 657.46906991261963206125 0 0 rotate --origin 0 0 -- -21.17647058823529411764 text --align center --size 284 --position 657.46906991261963206125 0 2 rotate --origin 0 0 -- -21.17647058823529411764 text --align center --size 284 --position 657.46906991261963206125 0 3 rotate --origin 0 0 -- -21.17647058823529411764 layout --fit-to-margins 1.5in --align left --landscape 11x17in linemerge write out.svg
</dc:source>
        <dc:date>2024-02-15T10:21:48.830847</dc:date>
      </cc:Work>
    </rdf:RDF>
  </metadata>
  <defs/>
  <g fill="none" id="layer1" inkscape:groupmode="layer" inkscape:label="1" stroke="#0000ff" style="display:inline">
    <polygon points="865.6258,469.4481 856.5179,474.0021 847.41,483.11 842.856,492.218 838.302,505.8799 838.302,528.6497 842.856,542.3116 847.41,551.4195 856.5179,560.5275 865.6258,565.0814 883.8417,565.0814 892.9496,560.5275 902.0576,551.4195 906.6115,542.3116 911.1655,528.6497 911.1655,505.8799 906.6115,492.218 902.0576,483.11 892.9496,474.0021 883.8417,469.4481"/>
    <polyline points="894.3938,633.5134 893.4375,623.3754 888.2348,611.5923 881.387,604.0557 864.4012,597.4754 854.2632,598.4317 842.4802,603.6344 834.9436,610.4822 825.7619,621.5765 817.5364,642.8087 816.8476,657.1931 817.8039,667.3311 823.0067,679.1142 829.8545,686.6508 846.8403,693.2311 856.9782,692.2748 868.7613,687.0721 876.2979,680.2243"/>
    <line x1="813.2045" x2="748.7768" y1="714.0583" y2="784.7322"/>
    <line x1="789.6466" x2="836.7625" y1="692.5824" y2="735.5342"/>
    <polygon points="725.0332,805.8083 716.8969,799.6851 704.684,795.5917 694.5011,795.575 680.2416,797.588 659.8588,807.7374 649.6591,817.9036 643.5359,826.0399 639.4426,838.2528 639.4258,848.4357 647.5453,864.7419 655.6816,870.8651 667.8944,874.9584 678.0774,874.9752 692.3369,872.9621 712.7196,862.8127 722.9194,852.6466 729.0426,844.5103 733.1359,832.2974 733.1527,822.1145"/>
    <polyline points="566.4275,886.386 572.2226,899.5694 577.1773,903.6838 586.6666,907.3779 595.7356,906.5376 604.3845,901.1627 608.4989,896.2079 611.7729,882.1841 607.9912,841.3733 607.9912,841.3733 512.7658,850.1972 512.7658,850.1972 516.5475,891.008 522.3426,904.1915 527.2973,908.3058 536.7866,912.0 550.3902,910.7394 559.0391,905.3645 563.1535,900.4098 566.4275,886.386 562.6458,845.5751"/>
    <polyline points="470.8616,909.526 487.0628,852.5844 487.0628,852.5844 395.0803,826.4131 395.0803,826.4131 378.879,883.3547"/>
    <line x1="443.2616" x2="433.2916" y1="840.1219" y2="875.1628"/>
    <polyline points="335.9045,787.9032 311.2051,820.6105 306.6061,834.2573 307.4958,840.6358 312.0197,849.7587 319.288,855.2474 329.3007,857.1021 335.6792,856.2123 347.5465,848.0542 372.2459,815.3469 372.2459,815.3469 295.9289,757.715"/>
    <line x1="316.6938" x2="257.5076" y1="813.3422" y2="808.593"/>
    <polyline points="242.5053,741.0598 237.1589,749.7264 232.7354,768.5341 182.391,687.225"/>
    <polyline points="211.0854,638.1295 161.8447,647.3342 182.009,606.502 168.5797,609.0124 158.7901,606.2095 153.4768,602.5699 146.49,589.9774 144.8165,581.0246 146.7825,566.7585 154.0618,556.132 166.6543,549.1453 180.0836,546.6349 194.3496,548.6009 199.6629,552.2406 205.8129,560.3566"/>
    <polyline points="169.7293,494.9882 159.9396,497.791 144.0,508.71 161.5726,414.705"/>
    <polyline points="237.1589,298.4651 186.8145,379.7741 186.8145,379.7741 259.0961,349.5416 201.0182,313.5813"/>
    <polyline points="281.7246,264.1102 272.6017,259.5863 253.4661,256.917 329.7831,199.285"/>
    <polyline points="368.8543,179.5259 381.3168,223.3271 421.9841,216.4909 416.3578,213.3571 408.2389,201.463 404.5001,188.3226 405.1415,173.936 411.4092,162.6832 423.3033,154.5644 432.0636,152.0719 446.4502,152.7132 457.7029,158.981 465.8218,170.8751 469.5606,184.0154 468.9192,198.4021 465.7853,204.0284 458.2714,210.9011"/>
    <polyline points="521.8349,198.8347 517.3004,198.4145 508.6515,193.0396 504.5371,188.0848 500.843,178.5956 502.5237,160.4574 507.8986,151.8085 512.8533,147.6942 522.3426,144.0 531.4117,144.8404 540.0606,150.2153 552.8238,160.5449 593.9674,210.0922 599.85,146.6086"/>
    <polygon points="629.226,189.5896 627.2129,203.8491 635.3828,218.0918 653.7356,232.3177 665.9653,238.4074 688.3779,244.4802 704.6673,242.4168 714.8334,232.217 718.8932,224.0639 720.9063,209.8044 712.7364,195.5617 694.3836,181.3358 682.1539,175.2461 659.7413,169.1733 643.4519,171.2367 633.2858,181.4365"/>
    <polyline points="741.4511,282.4621 738.3831,279.0967 735.6126,269.2978 735.91,262.8644 739.5728,253.363 753.0345,241.0911 762.8334,238.3205 769.2668,238.618 778.7682,242.2808 784.9041,249.0117 787.6747,258.8105 790.1478,275.0427 787.1735,339.3768 834.2894,296.425"/>
    <polyline points="810.0567,354.5591 856.7676,336.4632 844.4496,380.3053 857.1889,375.3701 867.3269,376.3263 873.2184,378.9277 882.4001,390.022 885.6903,398.5149 886.3791,412.8993 881.1763,424.6823 870.0821,433.864 857.3427,438.7993 842.9583,439.4881 837.0668,436.8867 829.5302,430.0389"/>
  </g>
</svg>
